<svg xmlns="http://www.w3.org/2000/svg" xmlns:svgjs="http://svgjs.com/svgjs" xmlns:xlink="http://www.w3.org/1999/xlink" width="288" height="288"><svg xmlns="http://www.w3.org/2000/svg" width="288" height="288" enable-background="new 0 0 760 760" viewBox="0 0 760 760"><path d="M209.918701,635.086182   C153.140839,616.830811 101.026993,590.260803 52.930424,555.696350   C48.923756,552.816956 46.929420,549.858704 46.775497,544.750916   C46.269375,527.955688 44.537189,511.178467 44.500061,494.391632   C44.402195,450.139099 49.068100,406.363586 59.330753,363.239166   C75.898277,293.621246 105.459702,229.780914 144.955872,170.358932   C146.253082,168.407288 148.291534,166.560059 150.408783,165.599030   C192.573822,146.460342 236.437378,132.771988 282.060608,124.707527   C285.365143,124.123413 286.982727,124.928673 288.354553,127.738358   C293.025665,137.305450 297.960144,146.746338 302.493011,156.377090   C303.835541,159.229492 305.173706,160.128754 308.444397,159.874222   C333.976196,157.887115 359.524841,154.839264 385.076263,154.762543   C407.947540,154.693832 430.832764,157.944992 453.700989,159.860947   C456.521027,160.097198 458.095978,159.727478 459.423126,156.800262   C463.747986,147.260864 468.573608,137.949829 473.075562,128.488602   C474.632507,125.216560 476.357635,124.045776 480.402527,124.775620   C525.816040,132.969849 569.509766,146.611298 611.538696,165.604431   C613.523254,166.501266 615.443542,168.202789 616.670288,170.018433   C662.328552,237.596237 694.107483,310.985931 708.659790,391.463318   C713.998169,420.985931 717.417358,450.775421 717.052002,480.826263   C716.783264,502.937378 715.763367,525.043091 714.745911,547.135925   C714.637024,549.501892 712.869019,552.534363 710.921143,553.964233   C661.392212,590.321289 607.299866,617.705383 548.659851,636.120422   C545.053284,637.252930 542.858582,636.916504 540.825867,633.553589   C530.588440,616.616272 520.274536,599.723389 509.789490,582.938660   C507.381195,579.083313 508.518951,577.747009 512.281006,576.025696   C528.150208,568.764160 543.901733,561.239990 559.597656,553.608826   C564.312439,551.316528 563.759033,550.881042 560.101257,547.069336   C554.035217,540.748108 548.532410,540.768250 540.486816,544.361145   C502.093323,561.506348 461.833527,572.036865 419.907990,576.144592   C348.684052,583.122925 280.675964,571.006897 215.490036,542.028503   C212.026550,540.488831 209.703735,540.453552 206.651260,543.029480   C196.683502,551.440735 194.839050,550.155457 207.911774,556.773132   C221.405609,563.603943 235.203690,569.862366 249.066193,575.919067   C253.292984,577.765808 254.034531,579.594238 251.756775,583.307373   C242.014542,599.189148 232.519897,615.226868 222.536942,630.955078   C217.165253,639.418335 218.436920,637.565735 209.918701,635.086182  M233.305817,460.202026   C254.796097,478.159546 282.492950,478.636108 304.405731,461.425476   C334.605713,437.705902 338.580811,388.555511 312.695648,358.924164   C289.957306,332.895111 253.024323,331.772430 228.819305,356.374542   C201.032791,384.616852 202.829590,432.293365 233.305817,460.202026  M550.454956,385.150696   C548.001770,379.529266 546.114624,373.571350 543.005005,368.340149   C520.013977,329.663757 468.513245,328.435516 444.428650,366.367798   C428.545990,391.382355 428.158051,417.728516 442.914673,443.453308   C454.136292,463.015686 471.390015,474.376465 494.426941,473.816376   C517.674744,473.251190 534.089539,460.683868 544.849548,440.697174   C554.181458,423.363190 555.304688,404.879364 550.454956,385.150696  z" class="color605AFA svgShape" fill="#000000"/></svg></svg>