<svg xmlns="http://www.w3.org/2000/svg" xmlns:svgjs="http://svgjs.com/svgjs" xmlns:xlink="http://www.w3.org/1999/xlink" width="288" height="288"><svg xmlns="http://www.w3.org/2000/svg" width="288" height="288" enable-background="new 0 0 600 600" viewBox="0 0 600 600"><path d="M74.097519,519.992554   C55.218193,512.338013 37.362492,503.532288 20.502865,492.168823   C82.657593,497.197754 138.813431,481.840698 189.387054,443.645386   C136.399490,438.906647 100.687096,412.511078 81.099464,362.555145   C98.839043,365.075775 115.187218,365.167267 132.026566,360.763306   C74.811348,343.379669 44.192951,305.705719 40.988819,246.238846   C57.050579,253.405441 73.211464,258.787476 90.978645,258.705597   C61.307476,236.026535 44.226177,206.588867 41.949623,169.263580   C40.558338,146.452713 45.727196,125.035828 57.310150,104.819870   C120.223793,178.785172 199.603577,219.182510 296.700470,226.120590   C296.099365,222.469284 295.566101,219.577164 295.152710,216.667999   C285.972229,152.059555 329.265656,93.749756 394.167084,84.320068   C431.534851,78.890823 463.835480,90.748978 491.191895,116.335205   C494.237640,119.183884 496.866913,119.561874 500.519409,118.718246   C522.409119,113.662331 543.244324,105.877220 562.909607,94.990662   C564.348999,94.193832 565.829407,93.470901 568.360962,92.158966   C559.238892,119.239395 543.020569,139.424347 520.300110,154.952301   C542.056274,152.928818 562.655151,146.918304 582.613525,138.400177   C582.906250,138.733124 583.199036,139.066055 583.491821,139.399002   C577.343018,147.140610 571.818848,155.500839 564.903931,162.483795   C553.563599,173.935760 541.244995,184.414246 529.542114,195.517349   C527.879639,197.094620 526.416687,199.885239 526.443054,202.095383   C527.663757,304.423859 490.880798,390.819550 416.552338,460.751953   C372.332458,502.356567 319.208221,527.337952 259.489288,537.828735   C199.251236,548.410583 140.066147,544.359985 82.383987,523.154785   C79.729813,522.179077 77.102386,521.130676 74.097519,519.992554  z" class="color269CF8 svgShape" fill="#000000"/></svg></svg>